<svg width="720" height="1178" viewBox="0 0 720 1178" fill="none" xmlns="http://www.w3.org/2000/svg">
<rect width="720" height="1178" rx="25" fill="#F1F0E3"/>
<path fill-rule="evenodd" clip-rule="evenodd" d="M360 339C360.5 476.901 472.236 588.537 610 588.537C471.929 588.537 360 700.674 360 839C359.502 701.099 247.764 589.463 110 589.463C248.073 589.463 360 477.326 360 339Z" fill="#BEC0B7" fill-opacity="0.25"/>
<path d="M266.625 643.5V518.5L329.125 487.25V612.25L391.625 643.5L329.125 674.75L266.625 643.5ZM391.625 487.25L454.125 456V706L391.625 737.25V487.25Z" fill="#494566"/>
<mask id="path-4-inside-1_122_113" fill="white">
<path d="M645.923 40C649.473 57.0784 662.922 70.5272 680 74.0771V1103.92C662.921 1107.47 649.473 1120.92 645.923 1138H74.0771C70.5272 1120.92 57.0785 1107.47 40 1103.92V74.0771C57.0784 70.5272 70.5272 57.0784 74.0771 40H645.923Z"/>
</mask>
<path d="M645.923 40L655.714 37.9649L654.058 30H645.923V40ZM680 74.0771H690V65.942L682.035 64.2864L680 74.0771ZM680 1103.92L682.035 1113.71L690 1112.06V1103.92H680ZM645.923 1138V1148H654.058L655.714 1140.04L645.923 1138ZM74.0771 1138L64.2864 1140.04L65.942 1148H74.0771V1138ZM40 1103.92H30V1112.06L37.9649 1113.71L40 1103.92ZM40 74.0771L37.9649 64.2864L30 65.942V74.0771H40ZM74.0771 40V30H65.942L64.2864 37.9649L74.0771 40ZM645.923 40L636.132 42.0351C640.492 63.0124 656.988 79.5075 677.965 83.8679L680 74.0771L682.035 64.2864C668.855 61.5469 658.453 51.1445 655.714 37.9649L645.923 40ZM680 74.0771H670V1103.92H680H690V74.0771H680ZM680 1103.92L677.965 1094.13C656.987 1098.49 640.492 1114.99 636.132 1135.96L645.923 1138L655.714 1140.04C658.453 1126.86 668.856 1116.45 682.035 1113.71L680 1103.92ZM645.923 1138V1128H74.0771V1138V1148H645.923V1138ZM74.0771 1138L83.8679 1135.96C79.5076 1114.99 63.0128 1098.49 42.0351 1094.13L40 1103.92L37.9649 1113.71C51.1443 1116.45 61.5468 1126.86 64.2864 1140.04L74.0771 1138ZM40 1103.92H50V74.0771H40H30V1103.92H40ZM40 74.0771L42.0351 83.8679C63.0124 79.5075 79.5075 63.0124 83.8679 42.0351L74.0771 40L64.2864 37.9649C61.5469 51.1445 51.1445 61.5469 37.9649 64.2864L40 74.0771ZM74.0771 40V50H645.923V40V30H74.0771V40Z" fill="#A9A99A" mask="url(#path-4-inside-1_122_113)"/>
<path fill-rule="evenodd" clip-rule="evenodd" d="M119.5 157C119.425 136.315 102.665 119.569 82 119.569C102.711 119.569 119.5 102.749 119.5 82C119.575 102.685 136.335 119.431 157 119.431C136.289 119.431 119.5 136.251 119.5 157Z" fill="#A9A99A"/>
<path fill-rule="evenodd" clip-rule="evenodd" d="M600.5 1021C600.575 1041.69 617.335 1058.43 638 1058.43C617.289 1058.43 600.5 1075.25 600.5 1096C600.425 1075.31 583.665 1058.57 563 1058.57C583.711 1058.57 600.5 1041.75 600.5 1021Z" fill="#A9A99A"/>
</svg>
