<svg width="4000" height="1000" viewBox="0 0 4000 1000" fill="none" xmlns="http://www.w3.org/2000/svg">
<path d="M1999.84 662.203C1973.15 586.793 1913.4 527.045 1838.04 500.464C1913.71 473.773 1973.64 413.644 2000.16 337.797C2026.85 413.208 2086.6 472.956 2161.96 499.537C2086.29 526.227 2026.36 586.356 1999.84 662.203Z" stroke="#7A7767" stroke-width="30"/>
<path d="M1901.7 401.526C1963.91 429.725 2035.76 429.722 2097.89 401.486C2069.53 463.879 2069.65 536.077 2098.21 598.475C2036 570.276 1964.15 570.278 1902.02 598.515C1930.38 536.121 1930.26 463.924 1901.7 401.526Z" stroke="#7A7767" stroke-opacity="0.35" stroke-width="30"/>
<mask id="path-3-inside-1_129_42" fill="white">
<path fill-rule="evenodd" clip-rule="evenodd" d="M1691.98 539.506C1691.9 517.45 1674.03 499.595 1652 499.595C1674.08 499.595 1691.98 481.661 1691.98 459.537C1692.06 481.593 1709.93 499.447 1731.97 499.447C1709.89 499.447 1691.98 517.382 1691.98 539.506Z"/>
</mask>
<path fill-rule="evenodd" clip-rule="evenodd" d="M1691.98 539.506C1691.9 517.45 1674.03 499.595 1652 499.595C1674.08 499.595 1691.98 481.661 1691.98 459.537C1692.06 481.593 1709.93 499.447 1731.97 499.447C1709.89 499.447 1691.98 517.382 1691.98 539.506Z" fill="#7A7767"/>
<path d="M1691.98 539.506L1651.98 539.651L1731.98 539.506H1691.98ZM1691.98 459.537L1731.98 459.393L1651.98 459.537H1691.98ZM1691.98 539.506L1731.98 539.361C1731.82 495.348 1696.15 459.595 1652 459.595V499.595V539.595C1652.03 539.595 1652.04 539.597 1652.04 539.597C1652.04 539.597 1652.04 539.597 1652.03 539.594C1652.02 539.592 1652 539.589 1651.99 539.585C1651.98 539.582 1651.97 539.577 1651.96 539.573C1651.94 539.565 1651.93 539.56 1651.93 539.562C1651.94 539.565 1651.95 539.573 1651.96 539.586C1651.98 539.599 1651.99 539.612 1651.99 539.62C1652 539.628 1652 539.629 1651.99 539.619C1651.99 539.615 1651.99 539.609 1651.99 539.602C1651.98 539.595 1651.98 539.59 1651.98 539.586C1651.98 539.582 1651.98 539.584 1651.98 539.592C1651.98 539.599 1651.98 539.619 1651.98 539.651L1691.98 539.506ZM1652 499.595V539.595C1696.24 539.595 1731.98 503.682 1731.98 459.537H1691.98H1651.98C1651.98 459.57 1651.98 459.59 1651.98 459.599C1651.98 459.607 1651.98 459.609 1651.98 459.605C1651.98 459.602 1651.98 459.596 1651.99 459.589C1651.99 459.582 1651.99 459.577 1651.99 459.572C1652 459.563 1652 459.562 1651.99 459.57C1651.99 459.579 1651.98 459.591 1651.96 459.605C1651.95 459.618 1651.94 459.626 1651.93 459.628C1651.93 459.631 1651.94 459.626 1651.96 459.618C1651.97 459.614 1651.98 459.61 1651.99 459.606C1652 459.602 1652.01 459.599 1652.02 459.597C1652.04 459.594 1652.04 459.594 1652.04 459.594C1652.04 459.594 1652.03 459.595 1652 459.595V499.595ZM1691.98 459.537L1651.98 459.681C1652.14 503.695 1687.82 539.447 1731.97 539.447V499.447V459.447C1731.94 459.447 1731.93 459.446 1731.93 459.446C1731.93 459.446 1731.93 459.446 1731.94 459.448C1731.95 459.45 1731.97 459.453 1731.98 459.457C1731.99 459.461 1732 459.465 1732.01 459.469C1732.03 459.477 1732.04 459.482 1732.03 459.48C1732.03 459.478 1732.02 459.47 1732.01 459.457C1731.99 459.443 1731.98 459.431 1731.98 459.422C1731.97 459.414 1731.97 459.414 1731.98 459.423C1731.98 459.428 1731.98 459.434 1731.98 459.441C1731.98 459.448 1731.99 459.453 1731.99 459.457C1731.99 459.461 1731.99 459.46 1731.99 459.452C1731.99 459.444 1731.98 459.425 1731.98 459.393L1691.98 459.537ZM1731.97 499.447V459.447C1687.72 459.447 1651.98 495.361 1651.98 539.506H1691.98H1731.98C1731.98 539.472 1731.99 539.452 1731.99 539.444C1731.99 539.435 1731.99 539.434 1731.99 539.437C1731.99 539.441 1731.99 539.446 1731.98 539.453C1731.98 539.46 1731.98 539.466 1731.98 539.471C1731.97 539.48 1731.97 539.48 1731.98 539.472C1731.98 539.464 1731.99 539.451 1732.01 539.438C1732.02 539.425 1732.03 539.417 1732.03 539.414C1732.04 539.412 1732.03 539.417 1732.01 539.425C1732 539.429 1731.99 539.433 1731.98 539.437C1731.97 539.441 1731.95 539.444 1731.94 539.446C1731.93 539.448 1731.93 539.449 1731.93 539.449C1731.93 539.449 1731.94 539.447 1731.97 539.447V499.447Z" fill="#7A7767" mask="url(#path-3-inside-1_129_42)"/>
<mask id="path-5-inside-2_129_42" fill="white">
<path fill-rule="evenodd" clip-rule="evenodd" d="M2308.02 539.504C2307.94 517.448 2290.06 499.594 2268.03 499.594C2290.11 499.594 2308.02 481.659 2308.02 459.535C2308.1 481.591 2325.97 499.445 2348 499.445C2325.92 499.445 2308.02 517.38 2308.02 539.504Z"/>
</mask>
<path fill-rule="evenodd" clip-rule="evenodd" d="M2308.02 539.504C2307.94 517.448 2290.06 499.594 2268.03 499.594C2290.11 499.594 2308.02 481.659 2308.02 459.535C2308.1 481.591 2325.97 499.445 2348 499.445C2325.92 499.445 2308.02 517.38 2308.02 539.504Z" fill="#7A7767"/>
<path d="M2308.02 539.504L2268.02 539.649L2348.02 539.504H2308.02ZM2308.02 459.535L2348.02 459.391L2268.02 459.535H2308.02ZM2308.02 539.504L2348.02 539.359C2347.86 495.346 2312.18 459.594 2268.03 459.594V499.594V539.594C2268.06 539.594 2268.07 539.595 2268.07 539.595C2268.07 539.595 2268.07 539.595 2268.06 539.592C2268.05 539.59 2268.03 539.587 2268.02 539.583C2268.01 539.58 2268 539.575 2267.99 539.571C2267.97 539.564 2267.96 539.558 2267.97 539.561C2267.97 539.563 2267.98 539.571 2267.99 539.584C2268.01 539.597 2268.02 539.61 2268.02 539.618C2268.03 539.626 2268.03 539.627 2268.02 539.617C2268.02 539.613 2268.02 539.607 2268.02 539.6C2268.01 539.594 2268.01 539.588 2268.01 539.584C2268.01 539.58 2268.01 539.582 2268.01 539.59C2268.01 539.598 2268.02 539.617 2268.02 539.649L2308.02 539.504ZM2268.03 499.594V539.594C2312.28 539.594 2348.02 503.68 2348.02 459.535H2308.02H2268.02C2268.02 459.568 2268.01 459.588 2268.01 459.597C2268.01 459.605 2268.01 459.607 2268.01 459.603C2268.01 459.6 2268.01 459.594 2268.02 459.587C2268.02 459.581 2268.02 459.575 2268.02 459.57C2268.03 459.561 2268.03 459.561 2268.02 459.568C2268.02 459.577 2268.01 459.589 2267.99 459.603C2267.98 459.616 2267.97 459.624 2267.97 459.627C2267.96 459.629 2267.97 459.624 2267.99 459.616C2268 459.612 2268.01 459.608 2268.02 459.604C2268.03 459.6 2268.05 459.597 2268.06 459.595C2268.07 459.593 2268.07 459.592 2268.07 459.592C2268.07 459.592 2268.06 459.594 2268.03 459.594V499.594ZM2308.02 459.535L2268.02 459.68C2268.17 503.693 2303.85 539.445 2348 539.445V499.445V459.445C2347.97 459.445 2347.96 459.444 2347.96 459.444C2347.96 459.444 2347.96 459.444 2347.97 459.446C2347.98 459.449 2348 459.451 2348.01 459.455C2348.02 459.459 2348.03 459.463 2348.04 459.467C2348.06 459.475 2348.07 459.48 2348.06 459.478C2348.06 459.476 2348.05 459.468 2348.04 459.455C2348.02 459.441 2348.01 459.429 2348.01 459.42C2348 459.412 2348 459.412 2348.01 459.422C2348.01 459.426 2348.01 459.432 2348.01 459.439C2348.02 459.446 2348.02 459.451 2348.02 459.455C2348.02 459.459 2348.02 459.458 2348.02 459.45C2348.02 459.442 2348.02 459.423 2348.02 459.391L2308.02 459.535ZM2348 499.445V459.445C2303.76 459.445 2268.02 495.359 2268.02 539.504H2308.02H2348.02C2348.02 539.47 2348.02 539.45 2348.02 539.442C2348.02 539.433 2348.02 539.432 2348.02 539.435C2348.02 539.439 2348.02 539.445 2348.01 539.451C2348.01 539.458 2348.01 539.464 2348.01 539.469C2348 539.478 2348 539.478 2348.01 539.47C2348.01 539.462 2348.02 539.449 2348.04 539.436C2348.05 539.423 2348.06 539.415 2348.06 539.412C2348.07 539.41 2348.06 539.415 2348.04 539.423C2348.03 539.427 2348.02 539.431 2348.01 539.435C2348 539.439 2347.98 539.442 2347.97 539.444C2347.96 539.446 2347.96 539.447 2347.96 539.447C2347.96 539.447 2347.97 539.445 2348 539.445V499.445Z" fill="#7A7767" mask="url(#path-5-inside-2_129_42)"/>
<mask id="path-7-inside-3_129_42" fill="white">
<path fill-rule="evenodd" clip-rule="evenodd" d="M3680 525C3679.95 511.21 3668.78 500.046 3655 500.046C3668.81 500.046 3680 488.833 3680 475C3680.05 488.79 3691.22 499.954 3705 499.954C3691.19 499.954 3680 511.167 3680 525Z"/>
</mask>
<path fill-rule="evenodd" clip-rule="evenodd" d="M3680 525C3679.95 511.21 3668.78 500.046 3655 500.046C3668.81 500.046 3680 488.833 3680 475C3680.05 488.79 3691.22 499.954 3705 499.954C3691.19 499.954 3680 511.167 3680 525Z" fill="#7A7767"/>
<path d="M3680 525L3640 525.145L3720 525H3680ZM3680 475L3720 474.856L3640 475H3680ZM3680 525L3720 524.855C3719.87 489.108 3690.89 460.046 3655 460.046V500.046V540.046C3646.66 540.046 3640.03 533.312 3640 525.145L3680 525ZM3655 500.046V540.046C3690.97 540.046 3720 510.854 3720 475H3680H3640C3640 466.811 3646.65 460.046 3655 460.046V500.046ZM3680 475L3640 475.144C3640.13 510.892 3669.11 539.954 3705 539.954V499.954V459.954C3713.34 459.954 3719.97 466.688 3720 474.856L3680 475ZM3705 499.954V459.954C3669.03 459.954 3640 489.146 3640 525H3680H3720C3720 533.189 3713.35 539.954 3705 539.954V499.954Z" fill="#7A7767" mask="url(#path-7-inside-3_129_42)"/>
<path d="M1969.12 398.25L2031.62 367L2094.12 398.25L2031.62 429.5L1969.12 398.25ZM2031.62 617V523.25L1969.12 492L2031.62 460.75L2094.12 492V585.75L2031.62 617ZM1906.62 617V429.5L1969.12 398.25V585.75L2031.62 617L1969.12 648.25L1906.62 617Z" fill="#FFFFF4"/>
<path d="M2366 498H2364V502H2366V498ZM3637 502C3638.1 502 3639 501.105 3639 500C3639 498.895 3638.1 498 3637 498V502ZM2366 500V502H3637V500V498H2366V500Z" fill="#7A7767"/>
<path d="M1634 498H1636V502H1634V498ZM363 502C361.895 502 361 501.105 361 500C361 498.895 361.895 498 363 498V502ZM1634 500V502H363V500V498H1634V500Z" fill="#7A7767"/>
<mask id="path-12-inside-4_129_42" fill="white">
<path fill-rule="evenodd" clip-rule="evenodd" d="M320 525C319.95 511.21 308.776 500.046 295 500.046C308.807 500.046 320 488.833 320 475C320.05 488.79 331.224 499.954 345 499.954C331.193 499.954 320 511.167 320 525Z"/>
</mask>
<path fill-rule="evenodd" clip-rule="evenodd" d="M320 525C319.95 511.21 308.776 500.046 295 500.046C308.807 500.046 320 488.833 320 475C320.05 488.79 331.224 499.954 345 499.954C331.193 499.954 320 511.167 320 525Z" fill="#7A7767"/>
<path d="M320 525L280 525.145L360 525H320ZM320 475L360 474.856L280 475H320ZM320 525L360 524.855C359.87 489.108 330.889 460.046 295 460.046V500.046V540.046C286.664 540.046 280.03 533.312 280 525.145L320 525ZM295 500.046V540.046C330.968 540.046 360 510.854 360 475H320H280C280 466.811 286.646 460.046 295 460.046V500.046ZM320 475L280 475.144C280.129 510.892 309.112 539.954 345 539.954V499.954V459.954C353.335 459.954 359.97 466.688 360 474.856L320 475ZM345 499.954V459.954C309.031 459.954 280 489.146 280 525H320H360C360 533.189 353.354 539.954 345 539.954V499.954Z" fill="#7A7767" mask="url(#path-12-inside-4_129_42)"/>
</svg>
